<svg width="40" height="40" viewBox="0 0 40 40" fill="none" xmlns="http://www.w3.org/2000/svg">
<path d="M18.2106 29C19.2981 25.0625 23.1006 22.25 27.4806 22.715C31.6506 23.1575 34.9656 26.675 35.1756 30.86C35.2281 31.9625 35.0781 33.02 34.7556 34.0025C34.5606 34.6025 33.9756 35 33.3381 35H11.0016C7.21555 35 4.37605 31.5358 5.11855 27.8233L9.68305 5H18.6831L21.6831 10.25L15.2556 14.8475L13.4331 12.5" fill="white"/>
<path d="M18.2106 29C19.2981 25.0625 23.1006 22.25 27.4806 22.715C31.6506 23.1575 34.9656 26.675 35.1756 30.86C35.2281 31.9625 35.0781 33.02 34.7556 34.0025C34.5606 34.6025 33.9756 35 33.3381 35H11.0016C7.21555 35 4.37605 31.5358 5.11855 27.8233L9.68305 5H18.6831L21.6831 10.25L15.2556 14.8475L13.4331 12.5M15.2631 14.8475L18.6831 27.5L15.2631 14.8475Z" fill="white"/>
<path d="M18.2106 29C19.2981 25.0625 23.1006 22.25 27.4806 22.715C31.6506 23.1575 34.9656 26.675 35.1756 30.86C35.2281 31.9625 35.0781 33.02 34.7556 34.0025C34.5606 34.6025 33.9756 35 33.3381 35H11.0016C7.21555 35 4.37605 31.5358 5.11855 27.8233L9.68305 5H18.6831L21.6831 10.25L15.2556 14.8475L13.4331 12.5M15.2631 14.8475L18.6831 27.5" stroke="white" stroke-width="4" stroke-miterlimit="2" stroke-linecap="round" stroke-linejoin="round"/>
</svg>
