<svg width="32" height="34" viewBox="0 0 32 34" fill="none" xmlns="http://www.w3.org/2000/svg">
<path d="M10.8352 15.3334L11.0752 15.345C11.6527 15.4003 12.1929 15.6547 12.6034 16.0646C13.0139 16.4745 13.2691 17.0143 13.3252 17.5917L13.3335 17.8334L13.3219 18.075C13.2658 18.6522 13.0109 19.1918 12.6007 19.6017C12.1905 20.0115 11.6507 20.2661 11.0735 20.3217L10.8352 20.3334H5.00187V23.6667H10.8352C13.6685 23.6667 16.0302 21.6467 16.5585 18.9684L16.6085 18.6684L26.6685 18.6667C27.8535 18.6667 28.9819 18.4184 30.0019 17.9734V25.3334C30.0018 26.3675 29.6813 27.3761 29.0843 28.2205C28.4874 29.0649 27.6434 29.7035 26.6685 30.0484V32C26.6685 32.4421 26.4929 32.866 26.1804 33.1786C25.8678 33.4911 25.4439 33.6667 25.0019 33.6667H5.00187C4.55984 33.6667 4.13592 33.4911 3.82336 33.1786C3.5108 32.866 3.3352 32.4421 3.3352 32V30.05C2.36008 29.705 1.5159 29.0662 0.918935 28.2215C0.321967 27.3767 0.00156983 26.3677 0.00186825 25.3334V18.6667C0.00186825 17.7827 0.353058 16.9348 0.978179 16.3097C1.6033 15.6846 2.45115 15.3334 3.3352 15.3334H10.8352ZM31.6685 9.50004V10.3334L31.6602 10.6267C31.5884 11.8494 31.0704 13.0031 30.2043 13.8692C29.3383 14.7352 28.1845 15.2533 26.9619 15.325L26.6685 15.3334H16.1069C15.659 14.3894 14.9658 13.5829 14.0997 12.9983C13.2337 12.4137 12.2266 12.0724 11.1835 12.01L10.8335 12H3.33353C2.1625 11.9982 1.01186 12.3064 -0.00146484 12.8934L0.00186825 7.00004C0.00186825 5.23193 0.704248 3.53624 1.95449 2.286C3.20473 1.03575 4.90042 0.333374 6.66853 0.333374H22.5019C24.933 0.333374 27.2646 1.29915 28.9837 3.01823C30.7028 4.73731 31.6685 7.06889 31.6685 9.50004Z" fill="white"/>
</svg>
