<svg width="36" height="36" viewBox="0 0 36 36" fill="none" xmlns="http://www.w3.org/2000/svg">
<path d="M5.5 5.5C5.5 4.17392 6.02678 2.90215 6.96447 1.96447C7.90215 1.02678 9.17392 0.5 10.5 0.5C11.8261 0.5 13.0979 1.02678 14.0355 1.96447C14.9732 2.90215 15.5 4.17392 15.5 5.5C15.5 6.82608 14.9732 8.09785 14.0355 9.03553C13.0979 9.97322 11.8261 10.5 10.5 10.5C9.17392 10.5 7.90215 9.97322 6.96447 9.03553C6.02678 8.09785 5.5 6.82608 5.5 5.5ZM22.4475 9.46L22.5525 9.54C23.6132 10.3263 24.9419 10.661 26.2486 10.4713C27.5552 10.2815 28.7338 9.58261 29.527 8.52709C30.3203 7.47157 30.6638 6.14513 30.4827 4.83725C30.3015 3.52937 29.6104 2.34623 28.5602 1.54603C27.5099 0.745831 26.1858 0.393541 24.8767 0.566043C23.5677 0.738544 22.38 1.42183 21.5729 2.46679C20.7658 3.51174 20.4047 4.83353 20.5686 6.14369C20.7325 7.45385 21.4079 8.64601 22.4475 9.46ZM13.67 13C13.984 12.4054 14.4147 11.8803 14.9364 11.456C15.458 11.0317 16.0599 10.717 16.706 10.5307C17.3521 10.3444 18.0291 10.2903 18.6965 10.3717C19.364 10.4531 20.0082 10.6683 20.5906 11.0044C21.173 11.3405 21.6816 11.7906 22.086 12.3278C22.4904 12.865 22.7823 13.4783 22.9442 14.1309C23.1061 14.7835 23.1347 15.4621 23.0283 16.126C22.922 16.79 22.6827 17.4256 22.325 17.995C21.6368 19.0903 20.5509 19.8763 19.2953 20.1878C18.0398 20.4993 16.7125 20.3121 15.5921 19.6655C14.4717 19.0189 13.6455 17.9632 13.2871 16.7203C12.9287 15.4773 13.0659 14.1439 13.67 13ZM4.25 13H10.925C10.4807 14.2689 10.3841 15.6336 10.6452 16.9524C10.9063 18.2712 11.5157 19.4962 12.41 20.5H11.75C10.4611 20.4998 9.20362 20.898 8.14971 21.64C7.0958 22.382 6.29695 23.4315 5.8625 24.645C5.02333 24.3079 4.23762 23.8506 3.53 23.2875C1.65 21.775 0.5 19.54 0.5 16.75C0.5 15.7554 0.895088 14.8016 1.59835 14.0983C2.30161 13.3951 3.25544 13 4.25 13ZM24.25 20.5C26.9625 20.5 29.2725 22.2275 30.1375 24.645C30.9875 24.2975 31.7725 23.845 32.47 23.2875C34.35 21.775 35.5 19.54 35.5 16.75C35.5 15.7554 35.1049 14.8016 34.4016 14.0983C33.6984 13.3951 32.7446 13 31.75 13H25.075C25.35 13.7825 25.5 14.625 25.5 15.5C25.5023 17.3453 24.822 19.1262 23.59 20.5H24.25ZM27.7175 25.32C27.9 25.76 28 26.245 28 26.75C28 29.54 26.8525 31.775 24.97 33.2875C23.1175 34.775 20.6325 35.5 18 35.5C15.3675 35.5 12.8825 34.775 11.03 33.2875C9.15 31.775 8 29.54 8 26.75C7.99868 26.2572 8.09478 25.7689 8.28276 25.3134C8.47075 24.8578 8.74692 24.4439 9.09541 24.0954C9.44389 23.7469 9.85781 23.4708 10.3134 23.2828C10.7689 23.0948 11.2572 22.9987 11.75 23H24.25C24.9928 22.9998 25.7188 23.2202 26.3362 23.6333C26.9535 24.0463 27.4343 24.6334 27.7175 25.32Z" fill="white"/>
</svg>
