<svg width="40" height="40" viewBox="0 0 40 40" fill="none" xmlns="http://www.w3.org/2000/svg">
<path d="M19.9998 3.33337C12.9998 3.33337 6.6665 8.70004 6.6665 17C6.6665 22.3 10.7498 28.5334 18.8998 35.7167C19.5332 36.2667 20.4832 36.2667 21.1165 35.7167C29.2498 28.5334 33.3332 22.3 33.3332 17C33.3332 8.70004 26.9998 3.33337 19.9998 3.33337ZM19.9998 20C18.1665 20 16.6665 18.5 16.6665 16.6667C16.6665 14.8334 18.1665 13.3334 19.9998 13.3334C21.8332 13.3334 23.3332 14.8334 23.3332 16.6667C23.3332 18.5 21.8332 20 19.9998 20Z" fill="white"/>
</svg>
