<svg width="34" height="32" viewBox="0 0 34 32" fill="none" xmlns="http://www.w3.org/2000/svg">
<path d="M15.625 22.6666L18.375 25.3333C18.6459 25.5959 18.9674 25.8042 19.3213 25.9464C19.6752 26.0885 20.0545 26.1617 20.4375 26.1617C20.8205 26.1617 21.1998 26.0885 21.5537 25.9464C21.9076 25.8042 22.2291 25.5959 22.5 25.3333C22.7709 25.0706 22.9857 24.7588 23.1323 24.4156C23.2789 24.0725 23.3543 23.7047 23.3543 23.3333C23.3543 22.9618 23.2789 22.594 23.1323 22.2509C22.9857 21.9077 22.7709 21.5959 22.5 21.3333" stroke="black" stroke-width="2.4" stroke-linecap="round" stroke-linejoin="round"/>
<path d="M19.7499 18.6666L23.1874 21.9999C23.7345 22.5304 24.4764 22.8284 25.2499 22.8284C26.0235 22.8284 26.7654 22.5304 27.3124 21.9999C27.8595 21.4695 28.1668 20.7501 28.1668 19.9999C28.1668 19.2498 27.8595 18.5304 27.3124 17.9999L21.9774 12.8266C21.204 12.0775 20.1556 11.6568 19.0624 11.6568C17.9693 11.6568 16.9209 12.0775 16.1474 12.8266L14.9374 13.9999C14.3904 14.5304 13.6485 14.8284 12.8749 14.8284C12.1014 14.8284 11.3595 14.5304 10.8124 13.9999C10.2654 13.4695 9.95813 12.7501 9.95813 11.9999C9.95813 11.2498 10.2654 10.5304 10.8124 9.99994L14.6762 6.25327C15.9305 5.04013 17.5663 4.26734 19.3246 4.05724C21.0829 3.84713 22.8632 4.21171 24.3837 5.09327L25.0299 5.46661C25.6154 5.80925 26.3115 5.92809 26.9824 5.79994L29.3749 5.33327" stroke="black" stroke-width="2.4" stroke-linecap="round" stroke-linejoin="round"/>
<path d="M29.375 4L30.75 18.6667H28" stroke="black" stroke-width="2.4" stroke-linecap="round" stroke-linejoin="round"/>
<path d="M4.625 4L3.25 18.6667L12.1875 27.3333C12.7345 27.8638 13.4764 28.1618 14.25 28.1618C15.0236 28.1618 15.7655 27.8638 16.3125 27.3333C16.8595 26.8029 17.1668 26.0835 17.1668 25.3333C17.1668 24.5832 16.8595 23.8638 16.3125 23.3333" stroke="black" stroke-width="2.4" stroke-linecap="round" stroke-linejoin="round"/>
<path d="M4.625 5.33325H15.625" stroke="black" stroke-width="2.4" stroke-linecap="round" stroke-linejoin="round"/>
</svg>
